<?xml version="1.0" encoding="UTF-8" standalone="no"?>
<svg
   width="1000"
   height="400"
   version="1.1"
   id="svg10"
   sodipodi:docname="IBM.svg"
   inkscape:version="1.1.1 (3bf5ae0d25, 2021-09-20)"
   xmlns:inkscape="http://www.inkscape.org/namespaces/inkscape"
   xmlns:sodipodi="http://sodipodi.sourceforge.net/DTD/sodipodi-0.dtd"
   xmlns:xlink="http://www.w3.org/1999/xlink"
   xmlns="http://www.w3.org/2000/svg"
   xmlns:svg="http://www.w3.org/2000/svg">
  <defs
     id="defs14" />
  <sodipodi:namedview
     id="namedview12"
     pagecolor="#ffffff"
     bordercolor="#666666"
     borderopacity="1.0"
     inkscape:pageshadow="2"
     inkscape:pageopacity="0.0"
     inkscape:pagecheckerboard="0"
     showgrid="false"
     inkscape:zoom="0.81529412"
     inkscape:cx="771.50072"
     inkscape:cy="87.085137"
     inkscape:window-width="1920"
     inkscape:window-height="1043"
     inkscape:window-x="1366"
     inkscape:window-y="0"
     inkscape:window-maximized="1"
     inkscape:current-layer="svg10" />
  <clipPath
     id="A">
    <path
       d="M0-1v83h55.9v236H1.5v82h195v-82h-55.9V82H195V-1zm554 1v82h55.9v236h-54.4v82h139V172l82.7 228 1.68.04 81.2-228v228h140v-82h-55.9v-236h54.4v-82h-156l-64.7 183-65.5-183z"
       id="path2" />
    <path
       id="B"
       d="M222 0v82h55.9v130h215v-24.9s18-14 23.8-27.4l11.5-25.9s5.35-14.5 5.35-27.4l-2.3-25.9s-3.62-21.1-9.92-27.3l-22.3-25.9S470.73-.1 433.13-.1zm140 82h82v76h-82z" />
    <use
       transform="matrix(1 0 0 -1 0 400)"
       xlink:href="#B"
       id="use5" />
  </clipPath>
  <path
     d="M0 13.7h1030v53.2H0m0 53.2h975v53.2H0v53.2h975v53.2H0m0 53.2h1030v53.2H0"
     clip-path="url(#A)"
     fill="none"
     stroke="#1f70c1"
     stroke-width="27.4"
     id="path8"
     style="fill:none;stroke:#ffffff;stroke-opacity:1" />
</svg>
