<svg id="Layer_1" data-name="Layer 1" xmlns="http://www.w3.org/2000/svg" viewBox="0 0 38.31 38.45"><defs><style>.cls-1{fill:none;}</style></defs><title>seta</title><path class="cls-1" d="M-146.75-2665.2v2.75a2.13,2.13,0,0,0,2.14,2.13l26.06-.1-9.94,8.73a3.8,3.8,0,0,0-1.27,2.79v.34a3,3,0,0,0,2.88,3l.94,0a4.47,4.47,0,0,0,3.27-1.22l12.76-14.34A5.85,5.85,0,0,0-110-2669l-12.7-13.82a4.47,4.47,0,0,0-3.27-1.22l-.94.05a3,3,0,0,0-2.88,3v.34a3.8,3.8,0,0,0,1.27,2.79l9.94,8.73-26.08-.1a2.12,2.12,0,0,0-2.12,2.12v1.91Z" transform="translate(146.75 2684)"/></svg>